# xmcd
#
# Track frame offsets:
#	150
#	6259
#	17515
#	27292
#	34432
#	42393
#	53970
#	62142
#	69988
#	85183
#
# Disc length: 1327 seconds
#
# Revision: 0
# Processed by: cddbd v1.5.1PL0 Copyright (c) Steve Scherf et al.
# Submitted via: dBpowerAMP V4.0
#
DISCID=7f052d0a
DTITLE=Jim Reeeves - Country Music Legend
DYEAR=1900
DGENRE=Country
TTITLE0=Have I told you lately I love you
TTITLE1=Just call me lonesome
TTITLE2=Home
TTITLE3=I'm begining to forget you
TTITLE4=Roly poly
TTITLE5=I love you more
TTITLE6=Sweet evening breeze
TTITLE7=Till the end of the world
TTITLE8=Making believe
TTITLE9=Highway to nowhere
EXTD=Country Music Legend
EXTT0=
EXTT1=
EXTT2=
EXTT3=
EXTT4=
EXTT5=
EXTT6=
EXTT7=
EXTT8=
EXTT9=
PLAYORDER=
